<svg width="149" height="36" viewBox="0 0 149 36" fill="none" xmlns="http://www.w3.org/2000/svg">
<path d="M2.548 28C1.484 28 0.952 27.468 0.952 26.404V3.832C0.952 2.768 1.484 2.236 2.548 2.236C3.09267 2.236 3.62467 2.55267 4.144 3.186L19.42 22.87H18.622V3.832C18.622 2.768 19.154 2.236 20.218 2.236C21.282 2.236 21.814 2.768 21.814 3.832V26.404C21.814 27.468 21.282 28 20.218 28C19.648 28 19.116 27.6833 18.622 27.05L3.346 7.366H4.144V26.404C4.144 27.468 3.612 28 2.548 28ZM30.7758 5.618C29.5724 5.618 28.9708 5.01 28.9708 3.794V2.673C28.9708 1.48233 29.5724 0.886999 30.7758 0.886999H31.8778C33.0304 0.886999 33.6068 1.48233 33.6068 2.673V3.794C33.6068 5.01 33.0304 5.618 31.8778 5.618H30.7758ZM31.3078 28C30.2438 28 29.7118 27.468 29.7118 26.404V10.33C29.7118 9.266 30.2438 8.734 31.3078 8.734C32.3718 8.734 32.9038 9.266 32.9038 10.33V26.404C32.9038 27.468 32.3718 28 31.3078 28ZM47.3435 28C44.8228 28 42.9481 27.392 41.7195 26.176C40.5035 24.9473 39.8955 23.0727 39.8955 20.552V16.144C39.8955 13.6107 40.4971 11.736 41.7005 10.52C42.9165 9.304 44.7975 8.70867 47.3435 8.734H50.4595C52.3468 8.734 53.8288 9.05067 54.9055 9.684C55.9948 10.3173 56.6915 11.2927 56.9955 12.61C57.1095 13.142 57.0145 13.5537 56.7105 13.845C56.4191 14.1363 55.9948 14.282 55.4375 14.282C54.9435 14.282 54.5825 14.1553 54.3545 13.902C54.1265 13.6487 53.9175 13.294 53.7275 12.838C53.5375 12.496 53.1891 12.2617 52.6825 12.135C52.1758 11.9957 51.4348 11.926 50.4595 11.926H47.3435C45.7095 11.9007 44.5885 12.1857 43.9805 12.781C43.3851 13.3637 43.0875 14.4847 43.0875 16.144V20.552C43.0875 22.1987 43.3851 23.3197 43.9805 23.915C44.5885 24.5103 45.7095 24.808 47.3435 24.808H50.4595C51.4348 24.808 52.1758 24.7447 52.6825 24.618C53.1891 24.4787 53.5375 24.238 53.7275 23.896C53.9175 23.4147 54.1265 23.0537 54.3545 22.813C54.5951 22.5723 54.9688 22.452 55.4755 22.452C56.0075 22.452 56.4191 22.5977 56.7105 22.889C57.0145 23.1803 57.1095 23.592 56.9955 24.124C56.6915 25.4287 55.9948 26.404 54.9055 27.05C53.8288 27.6833 52.3468 28 50.4595 28H47.3435ZM65.2257 28C64.1617 28 63.6297 27.468 63.6297 26.404V2.844C63.6297 1.78 64.1617 1.248 65.2257 1.248C66.2897 1.248 66.8217 1.78 66.8217 2.844V17.113L75.8657 9.342C76.6764 8.64533 77.4237 8.696 78.1077 9.494C78.8044 10.3047 78.7537 11.052 77.9557 11.736L71.0207 17.721L77.6517 25.264C78.3611 26.0873 78.3231 26.8347 77.5377 27.506C76.7271 28.2027 75.9671 28.152 75.2577 27.354L68.5887 19.83L66.8217 21.35V26.404C66.8217 27.468 66.2897 28 65.2257 28ZM89.3676 28C87.2016 28 85.5106 27.563 84.2946 26.689C83.0913 25.815 82.3376 24.466 82.0336 22.642C81.9829 22.0847 82.0969 21.6667 82.3756 21.388C82.6543 21.1093 83.0596 20.97 83.5916 20.97C84.1236 20.97 84.5099 21.0967 84.7506 21.35C85.0039 21.6033 85.1749 21.996 85.2636 22.528C85.4536 23.402 85.8589 24.0037 86.4796 24.333C87.1129 24.6497 88.0756 24.808 89.3676 24.808H94.8396C96.4736 24.808 97.5819 24.5167 98.1646 23.934C98.7599 23.3387 99.0576 22.2367 99.0576 20.628C99.0576 18.994 98.7536 17.8793 98.1456 17.284C97.5376 16.676 96.4356 16.372 94.8396 16.372H90.1276C87.7336 16.372 85.9539 15.7893 84.7886 14.624C83.6359 13.446 83.0596 11.66 83.0596 9.266C83.0596 6.88467 83.6296 5.11767 84.7696 3.965C85.9223 2.81233 87.6956 2.236 90.0896 2.236H94.6116C96.6256 2.236 98.2026 2.64767 99.3426 3.471C100.495 4.29433 101.224 5.55467 101.528 7.252C101.604 7.79667 101.502 8.21467 101.224 8.506C100.945 8.78467 100.527 8.924 99.9696 8.924C99.4629 8.924 99.0829 8.791 98.8296 8.525C98.5763 8.259 98.4116 7.87267 98.3356 7.366C98.1329 6.61866 97.7466 6.112 97.1766 5.846C96.6066 5.56733 95.7516 5.428 94.6116 5.428H90.0896C88.5696 5.428 87.5499 5.70033 87.0306 6.245C86.5113 6.777 86.2516 7.784 86.2516 9.266C86.2516 10.7607 86.5176 11.7867 87.0496 12.344C87.5816 12.9013 88.6076 13.18 90.1276 13.18H94.8396C97.3349 13.18 99.1906 13.788 100.407 15.004C101.635 16.22 102.25 18.0947 102.25 20.628C102.25 23.1487 101.642 25.0107 100.426 26.214C99.2096 27.4047 97.3476 28 94.8396 28H89.3676ZM110.833 35.6C109.769 35.6 109.237 35.068 109.237 34.004V10.33C109.237 9.266 109.769 8.734 110.833 8.734C111.897 8.734 112.429 9.266 112.429 10.33V10.805C113.113 10.121 113.955 9.608 114.956 9.266C115.969 8.91133 117.103 8.734 118.357 8.734H119.801C122.334 8.734 124.209 9.342 125.425 10.558C126.641 11.774 127.249 13.6487 127.249 16.182V20.552C127.249 23.0727 126.641 24.9473 125.425 26.176C124.209 27.392 122.334 28 119.801 28H112.429V34.004C112.429 35.068 111.897 35.6 110.833 35.6ZM112.429 24.808H119.801C121.46 24.808 122.581 24.5103 123.164 23.915C123.759 23.3197 124.057 22.1987 124.057 20.552V16.182C124.057 14.5227 123.759 13.4017 123.164 12.819C122.581 12.2237 121.46 11.926 119.801 11.926H118.357C116.774 11.926 115.406 12.116 114.253 12.496C113.1 12.876 112.492 13.4777 112.429 14.301V24.808ZM141.031 26.822C140.866 27.2147 140.632 27.5123 140.328 27.715C140.036 27.905 139.663 28 139.207 28C138.409 28 137.839 27.582 137.497 26.746L131.037 11.014C130.593 10.0007 130.872 9.304 131.873 8.924C132.823 8.48067 133.519 8.75933 133.963 9.76L140.005 24.504H138.523L145.135 9.684C145.35 9.266 145.641 8.981 146.009 8.829C146.389 8.677 146.807 8.70867 147.263 8.924C148.2 9.36733 148.453 10.0767 148.023 11.052L141.031 26.822Z" fill="#3C3C3C"/>
</svg>
